<svg xmlns="http://www.w3.org/2000/svg" version="1.1" xmlns:xlink="http://www.w3.org/1999/xlink" xmlns:svgjs="http://svgjs.dev/svgjs" width="1000" height="1000" viewBox="0 0 1000 1000"><rect width="1000" height="1000" fill="#ffffff"></rect><g transform="matrix(0.7,0,0,0.7,149.57575757575756,371.0207954953204)"><svg viewBox="0 0 396 146" data-background-color="#ffffff" preserveAspectRatio="xMidYMid meet" height="368" width="1000" xmlns="http://www.w3.org/2000/svg" xmlns:xlink="http://www.w3.org/1999/xlink"><g id="tight-bounds" transform="matrix(1,0,0,1,0.2400000000000091,0.10156777050941912)"><svg viewBox="0 0 395.52 145.79686445898116" height="145.79686445898116" width="395.52"><g><svg viewBox="0 0 666.4126785255486 245.65351679999998" height="145.79686445898116" width="395.52"><g transform="matrix(1,0,0,1,268.91507852554867,28.20192293259103)"><svg viewBox="0 0 397.4975999999999 189.2496709348179" height="189.2496709348179" width="397.4975999999999"><g id="textblocktransform"><svg viewBox="0 0 397.4975999999999 189.2496709348179" height="189.2496709348179" width="397.4975999999999" id="textblock"><g><rect width="397.4975999999999" height="8.885916579159607" x="0" y="109.0019109363637" fill="#000000" opacity="1" stroke-width="0" stroke="transparent" fill-opacity="1" class="rect-o-0" data-fill-palette-color="primary" rx="1%" id="o-0" data-palette-color="#77d4fc"></rect></g><g transform="matrix(1,0,0,1,0.9887999999999693,0)"><svg viewBox="0 0 395.52 98.53420815986678" height="98.53420815986678" width="395.52"><g transform="matrix(1,0,0,1,0,0)"><svg width="395.52" viewBox="1.1200000047683716 -35.790000915527344 146.60000610351562 36.52000045776367" height="98.53420815986678" data-palette-color="#77d4fc"><path d="M22.71-13.92L22.71-13.92 21.68-3.08 1.12-1.46Q1.27-9.99 1.45-18.41 1.64-26.83 1.9-35.35L1.9-35.35 14.6-35.35Q14.04-30 13.53-24.67 13.01-19.34 12.79-13.92L12.79-13.92Q13.94-13.87 15.06-13.87 16.19-13.87 17.33-13.87L17.33-13.87Q18.7-13.87 20.02-13.89 21.34-13.92 22.71-13.92ZM54.03-17.24L54.03-17.24Q54.03-15.01 53.51-12.95 53-10.89 52.04-9.08 51.07-7.28 49.69-5.77 48.31-4.27 46.59-3.2 44.87-2.12 42.84-1.53 40.82-0.93 38.55-0.93L38.55-0.93Q36.35-0.93 34.36-1.49 32.37-2.05 30.64-3.06 28.9-4.08 27.5-5.51 26.1-6.93 25.11-8.68 24.12-10.42 23.57-12.43 23.02-14.43 23.02-16.6L23.02-16.6Q23.02-18.73 23.53-20.76 24.05-22.8 25.01-24.61 25.97-26.42 27.34-27.93 28.71-29.44 30.41-30.54 32.1-31.64 34.08-32.25 36.06-32.86 38.25-32.86L38.25-32.86Q41.79-32.86 44.71-31.76 47.63-30.66 49.69-28.63 51.76-26.59 52.89-23.69 54.03-20.8 54.03-17.24ZM43.19-16.6L43.19-16.6Q43.19-17.65 42.88-18.64 42.58-19.63 41.99-20.4 41.4-21.17 40.54-21.64 39.67-22.12 38.55-22.12L38.55-22.12Q37.4-22.12 36.5-21.7 35.59-21.29 34.95-20.57 34.3-19.85 33.96-18.88 33.62-17.92 33.62-16.85L33.62-16.85Q33.62-15.82 33.91-14.79 34.2-13.77 34.79-12.94 35.37-12.11 36.24-11.6 37.11-11.08 38.25-11.08L38.25-11.08Q39.4-11.08 40.32-11.54 41.23-11.99 41.87-12.76 42.5-13.53 42.84-14.53 43.19-15.53 43.19-16.6ZM84.35-23.54L84.35-23.54Q84.35-21.63 84.02-20.08 83.69-18.53 82.98-17.24 82.27-15.94 81.15-14.84 80.02-13.75 78.44-12.74L78.44-12.74 84.25-2.39 73.26-0.24 69.5-10.64 66.47-10.55 66.04-0.39 55.54-0.39Q55.66-5.96 55.77-11.47 55.88-16.99 56.03-22.56L56.03-22.56Q56.07-25.37 56.12-28.13 56.17-30.88 56.32-33.69L56.32-33.69Q58.03-34.33 59.69-34.74 61.35-35.16 63.02-35.39 64.69-35.62 66.41-35.71 68.13-35.79 69.94-35.79L69.94-35.79Q72.72-35.79 75.32-35.02 77.92-34.25 79.93-32.71 81.93-31.18 83.14-28.88 84.35-26.59 84.35-23.54ZM73.41-22.75L73.41-22.75Q73.41-23.78 73.13-24.63 72.85-25.49 72.3-26.11 71.75-26.73 70.93-27.09 70.11-27.44 69.01-27.44L69.01-27.44Q68.53-27.44 68.06-27.38 67.6-27.32 67.16-27.2L67.16-27.2 66.77-18.12 67.35-18.12Q68.4-18.12 69.49-18.38 70.58-18.65 71.44-19.21 72.31-19.78 72.86-20.65 73.41-21.53 73.41-22.75ZM86.64-35.21L109.15-35.21Q109-32.91 108.88-30.66 108.76-28.42 108.56-26.12L108.56-26.12 98.21-25.59 97.97-22.51 105.24-22.51 104.7-14.94 97.38-14.7 97.14-11.13 103.19-11.13 107.49-11.13Q107.34-8.45 107.18-5.8 107.02-3.15 106.9-0.49L106.9-0.49 85.86 0 86.64-35.21ZM134.58-35.6L147.72-35.6 145.47 0.24 134.34 0.73 134.44-18.16 129.41-2.93 125.11-2.93 121.25-16.55 121.21-0.73 109.93-0.39 110.41-34.13 122.96-34.62 127.94-18.46 134.58-35.6Z" opacity="1" transform="matrix(1,0,0,1,0,0)" fill="#000000" class="undefined-text-0" data-fill-palette-color="primary" id="text-0"></path></svg></g></svg></g><g transform="matrix(1,0,0,1,0,128.35553029202023)"><svg viewBox="0 0 208.20423087427145 60.894140642797666" height="60.894140642797666" width="208.20423087427145"><g transform="matrix(1,0,0,1,0,0)"><svg width="208.20423087427145" viewBox="2.490000009536743 -34.66999816894531 158.92999267578125 46.48999786376953" height="60.894140642797666" data-palette-color="#4b91f1"><path d="M3.27-22.85L3.27-22.85 11.87-22.8Q11.62-22.75 11.5-22.39 11.38-22.02 11.28-21.83L11.28-21.83Q10.94-20.61 10.77-18.87 10.6-17.14 10.52-15.26 10.45-13.38 10.42-11.62 10.4-9.86 10.4-8.54L10.4-8.54Q10.4-8.11 10.4-6.76 10.4-5.42 10.47-3.91 10.55-2.39 10.69-1.15 10.84 0.1 11.13 0.39L11.13 0.39 2.49 0.39Q2.73 0.05 2.98-1.22 3.22-2.49 3.39-4.25 3.56-6.01 3.71-8.03 3.86-10.06 3.98-11.89 4.1-13.72 4.15-15.16 4.2-16.6 4.2-17.14L4.2-17.14Q4.2-17.43 4.2-18.31 4.2-19.19 4.1-20.14 4-21.09 3.81-21.9 3.61-22.71 3.27-22.85ZM7.52-34.67L7.52-34.67Q8.15-34.67 8.94-34.47 9.72-34.28 10.38-33.91 11.04-33.54 11.47-32.93 11.91-32.32 11.91-31.54L11.91-31.54Q11.91-30.76 11.47-30.18 11.04-29.59 10.38-29.22 9.72-28.86 8.94-28.66 8.15-28.47 7.52-28.47L7.52-28.47Q6.84-28.47 6.08-28.66 5.32-28.86 4.66-29.22 4-29.59 3.56-30.18 3.13-30.76 3.13-31.54L3.13-31.54Q3.13-32.32 3.56-32.93 4-33.54 4.66-33.91 5.32-34.28 6.08-34.47 6.84-34.67 7.52-34.67ZM33.84-24.56L33.84-24.56Q36.47-24.56 39.04-23.85 41.6-23.14 43.65-21.7 45.7-20.26 46.97-18.07 48.24-15.87 48.24-12.94L48.24-12.94Q48.24-10.01 46.63-7.71 45.02-5.42 42.55-3.83 40.09-2.25 37.18-1.42 34.27-0.59 31.69-0.59L31.69-0.59Q29.64-0.59 27.63-1.03 25.63-1.46 23.83-2.54L23.83-2.54Q23.78-1.03 23.78 0.46 23.78 1.95 23.78 3.47L23.78 3.47Q23.78 4 23.78 5.25 23.78 6.49 23.83 7.86 23.87 9.23 23.97 10.38 24.07 11.52 24.27 11.82L24.27 11.82 15.67 11.82Q15.92 11.43 16.14 9.52 16.35 7.62 16.55 4.91 16.75 2.2 16.89-0.95 17.04-4.1 17.16-6.98 17.28-9.86 17.33-12.18 17.38-14.5 17.38-15.53L17.38-15.53Q17.38-16.06 17.38-17.43 17.38-18.8 17.28-20.29 17.19-21.78 16.99-23 16.79-24.22 16.45-24.46L16.45-24.46 25.73-24.37Q25.39-24.02 25.27-23.36 25.14-22.71 25.05-22.22L25.05-22.22Q27.05-23.34 29.27-23.95 31.49-24.56 33.84-24.56ZM31.64-5.47L31.64-5.47Q33.35-5.47 35.03-5.96 36.72-6.45 38.08-7.42 39.45-8.4 40.28-9.84 41.11-11.28 41.11-13.18L41.11-13.18Q41.11-14.94 40.35-16.24 39.6-17.53 38.38-18.38 37.16-19.24 35.62-19.63 34.08-20.02 32.52-20.02L32.52-20.02Q29.98-20.02 27.76-18.95 25.53-17.87 24.41-15.53L24.41-15.53Q24.31-14.11 24.24-12.74 24.17-11.38 24.07-9.96L24.07-9.96Q24.46-8.69 25.24-7.81 26.02-6.93 27.02-6.42 28.02-5.91 29.22-5.69 30.42-5.47 31.64-5.47ZM71.04-14.4Q71.33-15.23 71.53-16.14 71.72-17.04 71.72-17.97L71.72-17.97Q71.72-20.02 70.62-21.02 69.53-22.02 67.48-22.02L67.48-22.02Q66.3-22.02 64.72-21.75 63.13-21.48 61.71-20.85 60.3-20.21 59.3-19.19 58.3-18.16 58.3-16.65L58.3-16.65Q58.3-15.53 59.39-14.77 60.49-14.01 61.96-13.55 63.42-13.09 64.91-12.84 66.4-12.6 67.18-12.45L67.18-12.45Q68.4-12.21 70.28-11.84 72.16-11.47 73.92-10.77 75.68-10.06 76.95-9.01 78.22-7.96 78.22-6.35L78.22-6.35Q78.22-4.54 76.8-3.32 75.39-2.1 73.41-1.37 71.43-0.63 69.28-0.32 67.13 0 65.72 0L65.72 0Q62.79 0 59.91-0.42 57.03-0.83 54.24-1.81L54.24-1.81Q53.9-1.95 53.12-2.27 52.34-2.59 51.48-2.95 50.63-3.32 49.9-3.61 49.16-3.91 48.97-3.91L48.97-3.91Q49.07-3.96 49.65-4.49 50.24-5.03 50.9-5.69 51.56-6.35 52.09-6.93 52.63-7.52 52.68-7.67L52.68-7.67Q55.17-5.81 58.22-4.93 61.27-4.05 64.35-4.05L64.35-4.05Q64.69-4.05 65.67-4.13 66.65-4.2 67.7-4.39 68.75-4.59 69.58-4.93 70.41-5.27 70.41-5.81L70.41-5.81Q70.41-6.59 69.04-7.08 67.67-7.57 65.6-8.01 63.52-8.45 61.13-8.98 58.74-9.52 56.66-10.38 54.58-11.23 53.22-12.5 51.85-13.77 51.85-15.77L51.85-15.77Q51.85-18.7 53.44-20.78 55.02-22.85 57.42-24.15 59.81-25.44 62.59-26.03 65.38-26.61 67.82-26.61L67.82-26.61Q69.82-26.61 71.67-26.29 73.53-25.98 74.95-25.15 76.36-24.32 77.22-22.85 78.07-21.39 78.07-19.04L78.07-19.04Q78.07-17.87 77.9-16.7 77.73-15.53 77.49-14.4L77.49-14.4 71.04-14.4ZM111.71-23.78Q111.52-23.44 111.35-22.31 111.17-21.19 111.03-19.65 110.88-18.12 110.78-16.31 110.69-14.5 110.61-12.87 110.54-11.23 110.51-9.94 110.49-8.64 110.49-8.06L110.49-8.06Q110.49-7.57 110.49-6.32 110.49-5.08 110.61-3.76 110.73-2.44 110.95-1.37 111.17-0.29 111.61-0.1L111.61-0.1 103.02-0.15 103.22-2.49Q101.36-1.17 99.16-0.32 96.97 0.54 94.67 0.54L94.67 0.54Q92.38 0.54 90.25-0.02 88.13-0.59 86.52-1.76 84.9-2.93 83.93-4.76 82.95-6.59 82.95-9.18L82.95-9.18Q82.95-12.45 83.27-15.67 83.59-18.9 83.59-22.17L83.59-22.17Q83.59-22.71 83.56-23.24 83.54-23.78 83.44-24.32L83.44-24.32 91.69-24.32Q91.2-23.49 90.96-21.68 90.72-19.87 90.59-17.82 90.47-15.77 90.45-13.84 90.42-11.91 90.42-10.84L90.42-10.84Q90.42-8.98 90.72-7.76 91.01-6.54 91.72-5.81 92.42-5.08 93.64-4.79 94.87-4.49 96.72-4.49L96.72-4.49Q97.75-4.49 98.7-4.86 99.65-5.22 100.53-5.81 101.41-6.4 102.14-7.13 102.87-7.86 103.46-8.59L103.46-8.59Q103.56-10.74 103.61-12.84 103.65-14.94 103.65-17.09L103.65-17.09Q103.65-17.53 103.65-18.53 103.65-19.53 103.61-20.61 103.56-21.68 103.43-22.58 103.31-23.49 103.12-23.78L103.12-23.78 111.71-23.78ZM161.42 0L152.87 0Q153.36-0.88 153.68-2.49 153.99-4.1 154.16-5.86 154.34-7.62 154.41-9.3 154.48-10.99 154.48-12.01L154.48-12.01Q154.48-13.28 154.26-14.53 154.04-15.77 153.51-16.72 152.97-17.68 151.99-18.26 151.02-18.85 149.5-18.85L149.5-18.85Q147.65-18.85 145.99-17.87 144.33-16.89 143.06-15.63L143.06-15.63Q143.2-14.5 143.2-13.48L143.2-13.48Q143.2-11.28 143.15-9.13 143.11-6.98 143.11-4.79L143.11-4.79Q143.11-3.56 143.13-2.37 143.15-1.17 143.35 0L143.35 0 134.8 0Q135.29-0.88 135.61-2.49 135.93-4.1 136.12-5.86 136.32-7.62 136.37-9.3 136.42-10.99 136.42-12.01L136.42-12.01Q136.42-13.28 136.2-14.53 135.98-15.77 135.44-16.72 134.9-17.68 133.93-18.26 132.95-18.85 131.44-18.85L131.44-18.85Q129.48-18.85 127.75-17.77 126.02-16.7 124.75-15.28L124.75-15.28Q124.65-13.04 124.6-10.79 124.55-8.54 124.55-6.25L124.55-6.25Q124.55-5.91 124.55-4.91 124.55-3.91 124.6-2.78 124.65-1.66 124.75-0.71 124.84 0.24 125.09 0.44L125.09 0.44 116.45 0.44Q116.64 0.2 116.84-0.95 117.03-2.1 117.18-3.69 117.32-5.27 117.42-7.1 117.52-8.94 117.59-10.6 117.67-12.26 117.69-13.53 117.71-14.79 117.71-15.28L117.71-15.28Q117.71-15.67 117.69-16.92 117.67-18.16 117.57-19.51 117.47-20.85 117.25-21.97 117.03-23.1 116.59-23.24L116.59-23.24 125.14-23.19Q125.04-22.66 125.04-22.05 125.04-21.44 124.99-20.85L124.99-20.85Q126.8-22.17 129.02-23.02 131.24-23.88 133.53-23.88L133.53-23.88Q135.98-23.88 138.15-22.88 140.32-21.88 141.64-19.73L141.64-19.73Q143.54-21.53 146.25-22.71 148.96-23.88 151.6-23.88L151.6-23.88Q153.95-23.88 155.75-23.12 157.56-22.36 158.78-20.97 160-19.58 160.63-17.68 161.27-15.77 161.27-13.48L161.27-13.48Q161.27-11.28 161.2-9.13 161.12-6.98 161.12-4.79L161.12-4.79Q161.12-3.56 161.17-2.37 161.22-1.17 161.42 0L161.42 0Z" opacity="1" transform="matrix(1,0,0,1,0,0)" fill="#000000" class="undefined-text-1" data-fill-palette-color="secondary" id="text-1"></path></svg></g></svg></g></svg></g></svg></g><g><svg viewBox="0 0 245.65351679999998 245.65351679999998" height="245.65351679999998" width="245.65351679999998"><g><svg xmlns="http://www.w3.org/2000/svg" xmlns:xlink="http://www.w3.org/1999/xlink" version="1.1" x="0" y="0" viewBox="5 5 90 90" enable-background="new 0 0 100 100" xml:space="preserve" height="245.65351679999998" width="245.65351679999998" class="icon-icon-0" data-fill-palette-color="accent" id="icon-0"><path fill="#000000" d="M95 52c0-12.871-5.692-24.431-14.682-32.318C72.431 10.692 60.871 5 48 5 24.29 5 5 24.29 5 48c0 12.868 5.69 24.426 14.677 32.313C27.564 89.306 39.126 95 52 95c0.084 0 0.166-0.006 0.25-0.006S52.416 95 52.5 95C75.972 95 95 75.972 95 52.5c0-0.084-0.006-0.166-0.006-0.25S95 52.084 95 52zM21.828 73.371c-4.245-5.978-6.77-13.259-6.822-21.121 0.135-20.511 16.732-37.109 37.244-37.244 7.862 0.052 15.144 2.577 21.121 6.822C80.224 28.473 84.5 37.758 84.5 48c0 20.126-16.374 36.5-36.5 36.5C37.758 84.5 28.473 80.224 21.828 73.371zM6 48C6 24.841 24.841 6 48 6c9.858 0 18.926 3.422 26.1 9.13C67.637 11.242 60.076 9 52 9 28.29 9 9 28.29 9 52c0 8.074 2.241 15.633 6.127 22.095C9.421 66.923 6 57.856 6 48zM52 89c-10.08 0-19.227-4.055-25.905-10.615C32.269 82.854 39.838 85.5 48 85.5c20.678 0 37.5-16.822 37.5-37.5 0-8.162-2.646-15.731-7.115-21.905C84.945 32.773 89 41.92 89 52 89 72.402 72.402 89 52 89z" data-fill-palette-color="accent"></path></svg></g></svg></g></svg></g><defs></defs></svg><rect width="395.52" height="145.79686445898116" fill="none" stroke="none" visibility="hidden"></rect></g></svg></g></svg>